<svg id="visual" viewBox="0 0 900 600" width="900" height="600" xmlns="http://www.w3.org/2000/svg" xmlns:xlink="http://www.w3.org/1999/xlink" version="1.1"><rect x="0" y="0" width="900" height="600" fill="#001220"></rect><defs><linearGradient id="grad1_0" x1="33.3%" y1="0%" x2="100%" y2="100%"><stop offset="20%" stop-color="#001220" stop-opacity="1"></stop><stop offset="80%" stop-color="#001220" stop-opacity="1"></stop></linearGradient></defs><defs><linearGradient id="grad2_0" x1="0%" y1="0%" x2="66.7%" y2="100%"><stop offset="20%" stop-color="#001220" stop-opacity="1"></stop><stop offset="80%" stop-color="#001220" stop-opacity="1"></stop></linearGradient></defs><g transform="translate(900, 0)"><path d="M0 486.7C-57 463.6 -114 440.4 -174.1 420.4C-234.3 400.3 -297.6 383.3 -344.2 344.2C-390.8 305.1 -420.6 244 -441.6 182.9C-462.6 121.9 -474.7 60.9 -486.7 0L0 0Z" fill="#FBAE3C"></path></g><g transform="translate(0, 600)"><path d="M0 -486.7C61.9 -466 123.7 -445.2 171.1 -413C218.4 -380.7 251.1 -336.9 300.5 -300.5C349.9 -264.1 415.9 -235.1 449.7 -186.3C483.5 -137.4 485.1 -68.7 486.7 0L0 0Z" fill="#FBAE3C"></path></g></svg>